PathFileType  4	(X/Y/Z) C:\Users\antoi\Documents\MyRepositories\mobilecap\ResultsAnalysis
DataRate	CameraRate	NumFrames	NumMarkers	Units	OrigDataRate	OrigDataStartFrame	OrigNumFrames
100.0	100.0	4	51	mm	100.0	25	197
Frame#	Time	r_knee			r_shank_antsup			r_ankle			r_calc			r_5meta			r_toe			L_knee			L_shank_antsup			L_ankle			L_calc			L_5meta			L_toe			r_sh2			r_sh3			r_sh4			L_sh2			L_sh3			r_thigh1			r_thigh2			r_thigh3			r_thigh4			r_thigh5			L_thigh1			L_thigh2			L_thigh3			L_thigh4			r.ASIS			r.PSIS			L.ASIS			L.PSIS			C7			R_Shoulder			L_Shoulder			R_Sternum			L_Sternum			R_humerus			R_elbow_med			R_elbow_lat			R_forearm			R_wrist_radius			R_wrist_ulna			L_humerus			L_elbow_med			L_elbow_lat			L_forearm			L_wrist_radius			L_wrist_ulna			R_HJC			L_HJC			R_HJC_reg			L_HJC_reg			
		X1	Y1	Z1	X2	Y2	Z2	X3	Y3	Z3	X4	Y4	Z4	X5	Y5	Z5	X6	Y6	Z6	X7	Y7	Z7	X8	Y8	Z8	X9	Y9	Z9	X10	Y10	Z10	X11	Y11	Z11	X12	Y12	Z12	X13	Y13	Z13	X14	Y14	Z14	X15	Y15	Z15	X16	Y16	Z16	X17	Y17	Z17	X18	Y18	Z18	X19	Y19	Z19	X20	Y20	Z20	X21	Y21	Z21	X22	Y22	Z22	X23	Y23	Z23	X24	Y24	Z24	X25	Y25	Z25	X26	Y26	Z26	X27	Y27	Z27	X28	Y28	Z28	X29	Y29	Z29	X30	Y30	Z30	X31	Y31	Z31	X32	Y32	Z32	X33	Y33	Z33	X34	Y34	Z34	X35	Y35	Z35	X36	Y36	Z36	X37	Y37	Z37	X38	Y38	Z38	X39	Y39	Z39	X40	Y40	Z40	X41	Y41	Z41	X42	Y42	Z42	X43	Y43	Z43	X44	Y44	Z44	X45	Y45	Z45	X46	Y46	Z46	X47	Y47	Z47	X48	Y48	Z48	X49	Y49	Z49	X50	Y50	Z50	X51	Y51	Z51	

25	0.24000000	-160.11665	476.90609	-100.12762	-101.39245	442.18464	-105.17943	-4.76867	117.33923	-108.45623	-43.76340	67.62739	-151.73250	117.68351	118.59916	-97.20941	137.00300	163.93821	-148.10467	-429.87880	466.44659	-342.04179	-411.40100	377.50872	-329.05037	-537.26594	93.00959	-302.63287	-596.41512	66.23729	-255.90302	-438.76709	38.92155	-328.51907	-386.92750	54.64230	-275.78566	-66.17394	335.85918	-93.81720	-169.94569	423.59682	-73.26718	-142.98158	309.90211	-68.92897	-488.53707	411.39938	-362.53782	-526.67113	294.81678	-360.50972	-220.09826	716.12254	-57.02170	-174.67707	614.43808	-73.21790	-224.00111	566.87914	-71.75407	-325.48768	670.71245	-67.62730	-275.09931	565.63103	-94.67227	-322.35920	723.78307	-417.54343	-346.76837	590.87696	-380.29344	-432.18321	739.98082	-415.51807	-457.70321	621.00041	-355.34476	-224.44131	908.78739	-137.17404	-443.22915	947.83726	-188.16536	-241.59056	908.26289	-357.87100	-448.34866	952.35689	-268.43757	-331.33192	1370.03747	-314.88753	-275.10853	1366.12464	-167.71994	-295.07261	1305.78794	-442.65009	-206.86660	1299.29099	-280.33563	-214.74498	1289.94918	-319.77090	-269.89472	1268.89395	-80.71938	-399.91002	1091.23086	-39.23219	-354.95033	1102.81050	9.76650	-302.00509	1025.46038	29.52426	-281.34102	882.72315	51.45120	-306.45324	888.31266	81.34459	-292.74058	1193.06753	-493.86580	-343.44349	975.51107	-444.31436	-316.91802	988.22220	-504.27108	-240.66527	911.60397	-506.14961	-170.83281	804.93189	-482.22586	-204.96864	786.72464	-499.72178	-312.79986	825.54064	-134.66551	-331.96321	829.45234	-341.24281	-301.84445	837.91562	-166.48213	-311.12849	846.11056	-312.05883	
26	0.25000000	-151.91568	474.46611	-101.70922	-93.01528	441.05640	-106.19300	14.53733	118.76867	-111.02300	-22.15644	68.18031	-155.42803	136.34648	124.06377	-98.00669	155.15802	170.54769	-148.34562	-425.69338	466.93284	-342.50480	-408.15179	378.23711	-329.74294	-536.77603	94.14339	-302.55222	-595.91354	67.48518	-255.79436	-439.22863	39.37423	-328.71543	-386.78686	54.55321	-275.70913	-54.43656	335.94321	-95.42646	-161.42463	420.10434	-75.41147	-131.05669	307.21524	-71.81221	-485.23328	412.67890	-362.76424	-524.40401	296.19908	-360.55808	-210.49308	713.62213	-57.71439	-165.57323	611.62538	-74.45821	-215.54400	564.64643	-72.88790	-316.05133	668.67602	-68.69883	-265.81167	562.86845	-96.08878	-315.94947	723.25927	-418.72063	-341.66163	590.71757	-381.18838	-424.39125	739.92199	-415.67401	-450.87616	621.28423	-355.04361	-213.53257	907.44036	-138.40391	-432.47228	945.29390	-187.89060	-232.23337	907.73175	-359.09925	-438.07615	950.11216	-268.07269	-321.65429	1368.55667	-312.47094	-265.76518	1363.96338	-165.58462	-286.53945	1306.13881	-440.97436	-197.39315	1298.71821	-278.88696	-205.52384	1289.54724	-318.54672	-260.22943	1266.30042	-79.04155	-389.14473	1087.43161	-38.51488	-345.01678	1099.52351	10.44818	-291.83320	1022.24129	30.12227	-270.78280	879.62070	51.54869	-295.99662	884.88495	81.51269	-285.08480	1193.73214	-493.17130	-335.16350	975.37316	-444.03325	-309.08606	988.31459	-504.04462	-234.83452	911.58353	-507.40184	-165.96436	803.76885	-484.95255	-200.18189	785.78686	-501.94804	-301.15953	823.61016	-135.73557	-321.73726	828.26038	-342.16079	-290.69796	836.16370	-167.58469	-300.87152	844.90977	-313.15355	
27	0.26000000	-143.07660	472.10018	-103.34113	-84.24149	439.57850	-107.19398	31.97821	119.44571	-113.58517	-2.71192	68.37129	-159.29855	153.01857	128.03668	-98.69670	171.62252	175.54004	-148.40423	-420.98401	467.24726	-343.03526	-404.49680	378.77365	-330.42407	-536.21557	95.36162	-302.49060	-595.36460	68.84473	-255.71627	-439.56868	39.73711	-328.87837	-386.60716	54.30835	-275.57400	-42.99584	335.52734	-97.10400	-152.51978	416.67631	-77.56132	-119.47301	304.48486	-74.74789	-481.44231	413.87210	-363.03304	-521.73723	297.56989	-360.70212	-200.35710	711.22786	-58.47486	-155.87909	608.97511	-75.78600	-206.34583	562.46339	-74.08454	-306.04932	666.63118	-69.67044	-255.95325	560.21301	-97.47939	-309.12296	722.55901	-419.79988	-336.10857	590.39447	-382.07497	-416.37886	739.76547	-415.79500	-443.78264	621.43780	-354.76022	-202.49039	905.92405	-139.56671	-421.65969	942.65338	-187.59368	-222.78595	906.95184	-360.29934	-427.69522	947.78715	-267.68964	-311.86858	1367.04511	-309.95546	-256.30896	1361.66482	-163.33480	-277.75470	1306.40843	-439.18219	-187.78319	1297.94716	-277.30238	-196.12044	1288.97664	-317.17429	-250.43068	1263.49270	-77.31701	-378.24136	1083.42411	-37.81831	-334.85011	1095.99143	11.15409	-281.43605	1018.79556	30.76025	-260.02294	876.31479	51.75111	-285.33286	881.23227	81.72614	-277.10709	1194.31129	-492.36379	-326.78840	975.22724	-443.76738	-301.10299	988.42104	-503.82568	-228.84672	911.47894	-508.65139	-161.17470	802.51897	-487.49651	-195.45589	784.81268	-504.21735	-289.47692	821.55624	-136.74444	-311.46658	826.88143	-343.00826	-279.52211	834.18872	-168.68946	-290.49349	843.52016	-314.28368	
28	0.27000000	-133.38857	469.77505	-105.06848	-74.84262	437.72757	-108.27309	47.49498	119.17809	-116.12547	14.38024	67.98564	-163.19781	167.76278	130.17924	-99.40450	186.40464	178.50943	-148.44144	-415.69150	467.32898	-343.60097	-400.31352	378.93443	-331.04555	-535.55677	96.65291	-302.45766	-594.76294	70.33465	-255.67553	-439.70716	39.93053	-328.98935	-386.37758	53.86830	-275.41446	-31.71436	334.47534	-98.88233	-143.01382	413.38209	-79.73664	-108.08600	301.70359	-77.68769	-476.98416	414.85137	-363.34213	-518.61349	298.89471	-360.93657	-189.57891	708.88592	-59.37585	-145.46584	606.46052	-77.24917	-196.21386	560.24235	-75.41196	-295.36762	664.52170	-70.56461	-245.46911	557.70917	-98.85469	-301.70842	721.57031	-420.72651	-329.92478	589.77971	-382.89428	-408.13720	739.51112	-415.88194	-436.41793	621.46925	-354.52677	-191.33528	904.08900	-140.62992	-410.80068	939.96310	-187.28361	-213.20804	905.74176	-361.45078	-417.19668	945.43225	-267.29185	-301.96637	1365.54072	-307.35175	-246.62503	1359.18075	-160.96411	-268.59812	1306.51445	-437.26764	-177.98400	1296.81056	-275.57953	-186.44510	1288.10659	-315.62888	-240.39568	1260.40012	-75.58402	-367.19632	1079.25178	-37.16406	-324.33468	1092.16191	11.86006	-270.72293	1015.05599	31.39204	-248.96747	872.71696	52.01801	-274.38891	877.28366	81.94267	-268.60515	1194.71253	-491.40044	-318.32527	975.10739	-443.52480	-292.96267	988.57060	-503.61668	-222.50515	911.19548	-509.84100	-156.39018	801.06876	-489.79416	-190.68891	783.77922	-506.48762	-277.86514	819.31294	-137.65486	-301.21999	825.22998	-343.75408	-268.39561	831.88643	-169.77579	-280.04042	841.84429	-315.43549	
